# xmcd
#
# Track frame offsets: 
#        150
#        3682
#        22595
#        35667
#        63002
#        88907
#        120882
#        155047
#        173330
#
# Disc length: 2732 seconds
#
# Revision: 5
# Processed by: cddbd v1.5.2PL0 Copyright (c) Steve Scherf et al.
# Submitted via: ExactAudioCopy v0.99pb4
#
DISCID=5d0aaa09
DTITLE=Russell GUNN - Ethnomusicology Vol 3
DYEAR=2003
DGENRE=Jazz+Funk
TTITLE0=Celebrity Room Intro
TTITLE1=No Separation
TTITLE2=The Critic's Song
TTITLE3=Variations (on a conspiracy theory)
TTITLE4=East St. Louis
TTITLE5=John Wicks
TTITLE6=Yesterdays
TTITLE7=Strange Fruit
TTITLE8=Stranger Fruit
EXTD=
EXTT0=
EXTT1=
EXTT2=
EXTT3=
EXTT4=
EXTT5=
EXTT6=
EXTT7=
EXTT8=
PLAYORDER=
